<mxfile host="app.diagrams.net" modified="2020-11-30T09:13:19.969Z" agent="5.0 (Windows NT 10.0; Win64; x64) AppleWebKit/537.36 (KHTML, like Gecko) Chrome/86.0.4240.198 Safari/537.36 Edg/86.0.622.69" etag="nw-0KjZ4uHEu_VT2jIyO" version="13.10.4" type="github">
  <diagram id="Yqy7pta3BwBFxliqt21V" name="Page-1">
    <mxGraphModel dx="782" dy="478" grid="1" gridSize="10" guides="1" tooltips="1" connect="1" arrows="1" fold="1" page="1" pageScale="1" pageWidth="850" pageHeight="1100" math="0" shadow="0">
      <root>
        <mxCell id="0" />
        <mxCell id="1" parent="0" />
        <mxCell id="8-NRUyyamBtynKdJ47t0-1" value="&lt;font style=&quot;font-size: 20px&quot;&gt;server&lt;/font&gt;" style="rounded=0;whiteSpace=wrap;html=1;" vertex="1" parent="1">
          <mxGeometry x="320" y="50" width="170" height="100" as="geometry" />
        </mxCell>
        <mxCell id="8-NRUyyamBtynKdJ47t0-2" value="web" style="rounded=0;whiteSpace=wrap;html=1;" vertex="1" parent="1">
          <mxGeometry x="230" y="150" width="90" height="30" as="geometry" />
        </mxCell>
        <mxCell id="8-NRUyyamBtynKdJ47t0-3" value="Database" style="rounded=0;whiteSpace=wrap;html=1;" vertex="1" parent="1">
          <mxGeometry x="490" y="150" width="80" height="30" as="geometry" />
        </mxCell>
        <mxCell id="8-NRUyyamBtynKdJ47t0-4" value="" style="endArrow=classic;html=1;" edge="1" parent="1">
          <mxGeometry width="50" height="50" relative="1" as="geometry">
            <mxPoint x="360" y="210" as="sourcePoint" />
            <mxPoint x="410" y="160" as="targetPoint" />
          </mxGeometry>
        </mxCell>
      </root>
    </mxGraphModel>
  </diagram>
</mxfile>
